HIERARCHY
ROOT Hips
{
	OFFSET -395.419647 -566.670227 89.000702
	CHANNELS 6 Xposition Yposition Zposition Zrotation Yrotation Xrotation
	JOINT Spine
	{
		OFFSET 0.000000 2.080078 8.814247
		CHANNELS 6 Xposition Yposition Zposition Zrotation Yrotation Xrotation
		JOINT Spine1
		{
			OFFSET 0.000000 0.000000 8.844139
			CHANNELS 6 Xposition Yposition Zposition Zrotation Yrotation Xrotation
			JOINT Spine2
			{
				OFFSET 0.000000 0.000000 11.682266
				CHANNELS 6 Xposition Yposition Zposition Zrotation Yrotation Xrotation
				JOINT Spine3
				{
					OFFSET 0.000000 0.000000 11.746704
					CHANNELS 6 Xposition Yposition Zposition Zrotation Yrotation Xrotation
					JOINT Neck
					{
						OFFSET 0.000000 0.000000 17.658264
						CHANNELS 6 Xposition Yposition Zposition Zrotation Yrotation Xrotation
						JOINT Neck1
						{
							OFFSET 0.000000 0.000000 5.101517
							CHANNELS 6 Xposition Yposition Zposition Zrotation Yrotation Xrotation
							JOINT Head
							{
								OFFSET 0.000000 0.000000 5.101517
								CHANNELS 6 Xposition Yposition Zposition Zrotation Yrotation Xrotation
								JOINT HeadEnd
								{
									OFFSET 0.000000 0.000000 11.655090
									CHANNELS 6 Xposition Yposition Zposition Zrotation Yrotation Xrotation
									End Site
									{
										OFFSET 0.000000 0.000000 0.100006
									}
								}
							}
						}
					}
					JOINT RightShoulder
					{
						OFFSET -2.625397 0.000000 11.175217
						CHANNELS 6 Xposition Yposition Zposition Zrotation Yrotation Xrotation
						JOINT RightArm
						{
							OFFSET 0.000000 0.000000 10.434708
							CHANNELS 6 Xposition Yposition Zposition Zrotation Yrotation Xrotation
							JOINT RightForeArm
							{
								OFFSET 0.000000 0.000000 29.628418
								CHANNELS 6 Xposition Yposition Zposition Zrotation Yrotation Xrotation
								JOINT RightHand
								{
									OFFSET 0.000000 0.000000 22.857605
									CHANNELS 6 Xposition Yposition Zposition Zrotation Yrotation Xrotation
									JOINT RightHandThumb1
									{
										OFFSET -2.867310 -2.944275 3.959564
										CHANNELS 6 Xposition Yposition Zposition Zrotation Yrotation Xrotation
										JOINT RightHandThumb2
										{
											OFFSET 0.000000 0.000000 3.350403
											CHANNELS 6 Xposition Yposition Zposition Zrotation Yrotation Xrotation
											JOINT RightHandThumb3
											{
												OFFSET 0.000000 0.000000 3.756516
												CHANNELS 6 Xposition Yposition Zposition Zrotation Yrotation Xrotation
												JOINT RightHandThumb4
												{
													OFFSET 0.000000 0.000000 3.147339
													CHANNELS 6 Xposition Yposition Zposition Zrotation Yrotation Xrotation
													End Site
													{
														OFFSET 0.000000 0.000000 0.100006
													}
												}
											}
										}
									}
									JOINT RightHandIndex1
									{
										OFFSET -0.086761 -2.345276 10.030899
										CHANNELS 6 Xposition Yposition Zposition Zrotation Yrotation Xrotation
										JOINT RightHandIndex2
										{
											OFFSET 0.000000 0.000000 4.061096
											CHANNELS 6 Xposition Yposition Zposition Zrotation Yrotation Xrotation
											JOINT RightHandIndex3
											{
												OFFSET 0.000000 0.000000 3.248871
												CHANNELS 6 Xposition Yposition Zposition Zrotation Yrotation Xrotation
												JOINT RightHandIndex4
												{
													OFFSET 0.000000 0.000000 2.639709
													CHANNELS 6 Xposition Yposition Zposition Zrotation Yrotation Xrotation
													End Site
													{
														OFFSET 0.000000 0.000000 0.100006
													}
												}
											}
										}
									}
									JOINT RightHandMiddle1
									{
										OFFSET 0.104095 -0.006775 9.502945
										CHANNELS 6 Xposition Yposition Zposition Zrotation Yrotation Xrotation
										JOINT RightHandMiddle2
										{
											OFFSET 0.000000 0.000000 4.568726
											CHANNELS 6 Xposition Yposition Zposition Zrotation Yrotation Xrotation
											JOINT RightHandMiddle3
											{
												OFFSET 0.000000 0.000000 3.654984
												CHANNELS 6 Xposition Yposition Zposition Zrotation Yrotation Xrotation
												JOINT RightHandMiddle4
												{
													OFFSET 0.000000 0.000000 2.741241
													CHANNELS 6 Xposition Yposition Zposition Zrotation Yrotation Xrotation
													End Site
													{
														OFFSET 0.000000 0.000000 0.100006
													}
												}
											}
										}
									}
									JOINT RightHandRing1
									{
										OFFSET 0.086761 2.267456 8.921707
										CHANNELS 6 Xposition Yposition Zposition Zrotation Yrotation Xrotation
										JOINT RightHandRing2
										{
											OFFSET 0.000000 0.000000 4.061096
											CHANNELS 6 Xposition Yposition Zposition Zrotation Yrotation Xrotation
											JOINT RightHandRing3
											{
												OFFSET 0.000000 0.000000 3.654984
												CHANNELS 6 Xposition Yposition Zposition Zrotation Yrotation Xrotation
												JOINT RightHandRing4
												{
													OFFSET 0.000000 0.000000 2.741241
													CHANNELS 6 Xposition Yposition Zposition Zrotation Yrotation Xrotation
													End Site
													{
														OFFSET 0.000000 0.000000 0.100006
													}
												}
											}
										}
									}
									JOINT RightHandPinky1
									{
										OFFSET -0.173492 4.467224 7.976990
										CHANNELS 6 Xposition Yposition Zposition Zrotation Yrotation Xrotation
										JOINT RightHandPinky2
										{
											OFFSET 0.000000 0.000000 3.350403
											CHANNELS 6 Xposition Yposition Zposition Zrotation Yrotation Xrotation
											JOINT RightHandPinky3
											{
												OFFSET 0.000000 0.000000 2.842758
												CHANNELS 6 Xposition Yposition Zposition Zrotation Yrotation Xrotation
												JOINT RightHandPinky4
												{
													OFFSET 0.000000 0.000000 2.639709
													CHANNELS 6 Xposition Yposition Zposition Zrotation Yrotation Xrotation
													End Site
													{
														OFFSET 0.000000 0.000000 0.100006
													}
												}
											}
										}
									}
									JOINT RightForeArmEnd
									{
										OFFSET 0.000000 0.000000 0.000000
										CHANNELS 6 Xposition Yposition Zposition Zrotation Yrotation Xrotation
										End Site
										{
											OFFSET 0.000000 0.000000 0.100006
										}
									}
								}
								JOINT RightArmEnd
								{
									OFFSET 0.000000 0.000000 0.000000
									CHANNELS 6 Xposition Yposition Zposition Zrotation Yrotation Xrotation
									End Site
									{
										OFFSET 0.000000 0.000000 0.100006
									}
								}
							}
						}
					}
					JOINT LeftShoulder
					{
						OFFSET 2.625397 0.000000 11.175217
						CHANNELS 6 Xposition Yposition Zposition Zrotation Yrotation Xrotation
						JOINT LeftArm
						{
							OFFSET 0.000000 0.000000 10.813629
							CHANNELS 6 Xposition Yposition Zposition Zrotation Yrotation Xrotation
							JOINT LeftForeArm
							{
								OFFSET 0.000000 0.000000 28.724777
								CHANNELS 6 Xposition Yposition Zposition Zrotation Yrotation Xrotation
								JOINT LeftHand
								{
									OFFSET 0.644379 0.328857 25.716171
									CHANNELS 6 Xposition Yposition Zposition Zrotation Yrotation Xrotation
									JOINT LeftHandThumb1
									{
										OFFSET 2.867310 -2.944275 3.959564
										CHANNELS 6 Xposition Yposition Zposition Zrotation Yrotation Xrotation
										JOINT LeftHandThumb2
										{
											OFFSET 0.000000 0.000000 3.350403
											CHANNELS 6 Xposition Yposition Zposition Zrotation Yrotation Xrotation
											JOINT LeftHandThumb3
											{
												OFFSET 0.000000 0.000000 3.756516
												CHANNELS 6 Xposition Yposition Zposition Zrotation Yrotation Xrotation
												JOINT LeftHandThumb4
												{
													OFFSET 0.000000 0.000000 3.100006
													CHANNELS 6 Xposition Yposition Zposition Zrotation Yrotation Xrotation
													End Site
													{
														OFFSET 0.000000 0.000000 0.100006
													}
												}
											}
										}
									}
									JOINT LeftHandIndex1
									{
										OFFSET 0.086761 -2.345276 10.030899
										CHANNELS 6 Xposition Yposition Zposition Zrotation Yrotation Xrotation
										JOINT LeftHandIndex2
										{
											OFFSET 0.000000 0.000000 4.061096
											CHANNELS 6 Xposition Yposition Zposition Zrotation Yrotation Xrotation
											JOINT LeftHandIndex3
											{
												OFFSET 0.000000 0.000000 3.248871
												CHANNELS 6 Xposition Yposition Zposition Zrotation Yrotation Xrotation
												JOINT LeftHandIndex4
												{
													OFFSET 0.000000 0.000000 2.639709
													CHANNELS 6 Xposition Yposition Zposition Zrotation Yrotation Xrotation
													End Site
													{
														OFFSET 0.000000 0.000000 0.100006
													}
												}
											}
										}
									}
									JOINT LeftHandMiddle1
									{
										OFFSET -0.104095 -0.006775 9.502945
										CHANNELS 6 Xposition Yposition Zposition Zrotation Yrotation Xrotation
										JOINT LeftHandMiddle2
										{
											OFFSET 0.000000 0.000000 4.568726
											CHANNELS 6 Xposition Yposition Zposition Zrotation Yrotation Xrotation
											JOINT LeftHandMiddle3
											{
												OFFSET 0.000000 0.000000 3.654984
												CHANNELS 6 Xposition Yposition Zposition Zrotation Yrotation Xrotation
												JOINT LeftHandMiddle4
												{
													OFFSET 0.000000 0.000000 2.741241
													CHANNELS 6 Xposition Yposition Zposition Zrotation Yrotation Xrotation
													End Site
													{
														OFFSET 0.000000 0.000000 0.100006
													}
												}
											}
										}
									}
									JOINT LeftHandRing1
									{
										OFFSET -0.086761 2.267456 8.921707
										CHANNELS 6 Xposition Yposition Zposition Zrotation Yrotation Xrotation
										JOINT LeftHandRing2
										{
											OFFSET 0.000000 0.000000 4.061096
											CHANNELS 6 Xposition Yposition Zposition Zrotation Yrotation Xrotation
											JOINT LeftHandRing3
											{
												OFFSET 0.000000 0.000000 3.654984
												CHANNELS 6 Xposition Yposition Zposition Zrotation Yrotation Xrotation
												JOINT LeftHandRing4
												{
													OFFSET 0.000000 0.000000 2.741241
													CHANNELS 6 Xposition Yposition Zposition Zrotation Yrotation Xrotation
													End Site
													{
														OFFSET 0.000000 0.000000 0.100006
													}
												}
											}
										}
									}
									JOINT LeftHandPinky1
									{
										OFFSET 0.173492 4.467224 7.976990
										CHANNELS 6 Xposition Yposition Zposition Zrotation Yrotation Xrotation
										JOINT LeftHandPinky2
										{
											OFFSET 0.000000 0.000000 3.350403
											CHANNELS 6 Xposition Yposition Zposition Zrotation Yrotation Xrotation
											JOINT LeftHandPinky3
											{
												OFFSET 0.000000 0.000000 2.842758
												CHANNELS 6 Xposition Yposition Zposition Zrotation Yrotation Xrotation
												JOINT LeftHandPinky4
												{
													OFFSET 0.000000 0.000000 2.639709
													CHANNELS 6 Xposition Yposition Zposition Zrotation Yrotation Xrotation
													End Site
													{
														OFFSET 0.000000 0.000000 0.100006
													}
												}
											}
										}
									}
									JOINT LeftForeArmEnd
									{
										OFFSET 0.000000 0.000000 0.000000
										CHANNELS 6 Xposition Yposition Zposition Zrotation Yrotation Xrotation
										End Site
										{
											OFFSET 0.000000 0.000000 0.100006
										}
									}
								}
								JOINT LeftArmEnd
								{
									OFFSET 0.000000 0.000000 0.000000
									CHANNELS 6 Xposition Yposition Zposition Zrotation Yrotation Xrotation
									End Site
									{
										OFFSET 0.000000 0.000000 0.100006
									}
								}
							}
						}
					}
				}
			}
		}
	}
	JOINT RightUpLeg
	{
		OFFSET -11.289948 0.000000 0.000000
		CHANNELS 6 Xposition Yposition Zposition Zrotation Yrotation Xrotation
		JOINT RightLeg
		{
			OFFSET 0.000000 0.000000 -38.200329
			CHANNELS 6 Xposition Yposition Zposition Zrotation Yrotation Xrotation
			JOINT RightFoot
			{
				OFFSET 0.000000 0.000000 -39.900856
				CHANNELS 6 Xposition Yposition Zposition Zrotation Yrotation Xrotation
				JOINT RightToeBase
				{
					OFFSET 0.000000 -15.261658 0.000001
					CHANNELS 6 Xposition Yposition Zposition Zrotation Yrotation Xrotation
					JOINT RightToeBaseEnd
					{
						OFFSET 0.000000 -7.370728 0.000001
						CHANNELS 6 Xposition Yposition Zposition Zrotation Yrotation Xrotation
						End Site
						{
							OFFSET 0.000000 0.000000 0.100000
						}
					}
				}
				JOINT RightLegEnd
				{
					OFFSET 0.000000 0.000000 0.000000
					CHANNELS 6 Xposition Yposition Zposition Zrotation Yrotation Xrotation
					End Site
					{
						OFFSET 0.000000 0.000000 0.100000
					}
				}
			}
			JOINT RightUpLegEnd
			{
				OFFSET 0.000000 0.000000 0.000000
				CHANNELS 6 Xposition Yposition Zposition Zrotation Yrotation Xrotation
				End Site
				{
					OFFSET 0.000000 0.000000 0.099998
				}
			}
		}
	}
	JOINT LeftUpLeg
	{
		OFFSET 11.315674 0.000000 0.000000
		CHANNELS 6 Xposition Yposition Zposition Zrotation Yrotation Xrotation
		JOINT LeftLeg
		{
			OFFSET 0.000000 0.000000 -38.200329
			CHANNELS 6 Xposition Yposition Zposition Zrotation Yrotation Xrotation
			JOINT LeftFoot
			{
				OFFSET 0.000000 0.000000 -39.900856
				CHANNELS 6 Xposition Yposition Zposition Zrotation Yrotation Xrotation
				JOINT LeftToeBase
				{
					OFFSET 0.000000 -15.261658 0.000001
					CHANNELS 6 Xposition Yposition Zposition Zrotation Yrotation Xrotation
					JOINT LeftToeBaseEnd
					{
						OFFSET 0.000000 -7.539978 0.000001
						CHANNELS 6 Xposition Yposition Zposition Zrotation Yrotation Xrotation
						End Site
						{
							OFFSET 0.000000 0.000000 0.100000
						}
					}
				}
				JOINT LeftLegEnd
				{
					OFFSET 0.000000 0.000000 0.000000
					CHANNELS 6 Xposition Yposition Zposition Zrotation Yrotation Xrotation
					End Site
					{
						OFFSET 0.000000 0.000000 0.100000
					}
				}
			}
			JOINT LeftUpLegEnd
			{
				OFFSET 0.000000 0.000000 0.000000
				CHANNELS 6 Xposition Yposition Zposition Zrotation Yrotation Xrotation
				End Site
				{
					OFFSET 0.000000 0.000000 0.099998
				}
			}
		}
	}
}
MOTION
Frames: 2
Frame Time: 0.016667
0.040253 1.966614 85.750587 1.045379 7.573051 -16.703964 0.000040 2.080059 8.814240 -1.436430 -5.124699 8.306311 -0.000012 0.000005 8.844128 -0.303981 -0.492954 1.702687 0.000000 -0.000025 11.682274 -2.734248 -2.378726 13.530799 -0.000008 -0.000003 11.746723 -0.227811 -1.594923 5.769625 0.000009 0.000002 17.658270 -1.055727 -3.889389 5.452462 0.000012 0.000024 5.101547 0.727998 0.730476 -3.450089 0.000013 0.000003 5.101510 -1.289440 1.936004 -17.250787 0.000003 -0.000000 11.655044 0.000000 0.000000 0.000000 -2.625408 0.000016 11.175241 13.620991 -93.540137 1.042612 0.000015 -0.000019 10.434700 -56.919081 -29.102784 54.588224 0.000006 0.000000 29.628445 11.706953 0.231922 25.482736 -0.000057 -0.000004 22.857582 15.593486 -8.210653 -7.323571 -2.867294 -2.944260 3.959518 31.586705 -17.619253 50.974579 -0.000004 0.000000 3.350410 -13.456746 8.731323 -24.185258 -0.000008 0.000000 3.756496 -8.945634 6.680275 -16.547342 0.000013 0.000012 3.147326 -0.000001 0.000000 0.000002 -0.086765 -2.345276 10.030899 -11.795785 -15.802433 5.017842 -0.000008 0.000025 4.061119 0.344193 -11.523228 1.639937 0.000034 0.000005 3.248861 -0.156280 -11.523415 1.638345 0.000032 -0.000022 2.639723 0.000002 0.000000 -0.000001 0.104092 -0.006772 9.502953 -6.344756 -14.957863 2.464326 0.000008 0.000004 4.568751 0.448957 -10.707711 0.559447 -0.000007 -0.000010 3.654999 -0.048486 -10.707741 0.559024 -0.000009 0.000003 2.741226 -0.000000 0.000000 0.000000 0.086752 2.267464 8.921715 1.791669 -16.122132 1.668954 0.000008 -0.000001 4.061065 -0.939970 -11.312003 -0.691130 0.000011 -0.000025 3.655000 0.066735 -11.313536 -0.693020 0.000015 -0.000009 2.741248 0.000002 0.000003 0.000001 -0.173492 4.467274 7.976976 10.621598 -16.198287 -1.356773 -0.000015 0.000020 3.350399 -1.807895 -11.219292 -2.205093 0.000007 -0.000021 2.842779 0.196442 -11.219529 -2.206382 0.000015 0.000024 2.639730 -0.000003 -0.000003 -0.000001 -0.000008 0.000011 -0.000004 -0.000001 0.000001 0.000001 0.000007 -0.000008 -0.000017 0.000001 -0.000001 -0.000000 2.625411 -0.000001 11.175182 -10.555838 91.929435 -0.317287 0.000000 -0.000007 10.813633 56.830302 48.213117 55.836643 -0.000017 -0.000023 28.724815 -11.423447 0.444932 37.351207 0.644358 0.328823 25.716188 -13.974410 -2.394841 -6.588535 2.867279 -2.944321 3.959587 -31.623899 17.268282 51.506586 -0.000011 0.000015 3.350449 12.679394 -8.429108 -22.889711 0.000017 0.000011 3.756516 8.440184 -6.403187 -15.670571 0.000003 -0.000002 3.100008 -0.000000 -0.000000 0.000001 0.086773 -2.345254 10.030910 -6.108610 15.281577 1.555172 -0.000000 0.000031 4.061110 0.363454 10.476513 -1.489171 0.000004 0.000048 3.248894 -0.136535 10.476417 -1.489180 -0.000001 0.000009 2.639736 -0.000002 -0.000001 -0.000000 -0.104082 -0.006799 9.502985 -1.127282 13.923706 2.406101 -0.000012 0.000014 4.568736 0.455864 9.762926 -0.516680 -0.000008 -0.000013 3.654987 -0.044162 9.763238 -0.516826 -0.000006 -0.000002 2.741243 0.000001 0.000001 0.000001 -0.086773 2.267425 8.921719 7.207785 13.982203 4.886446 -0.000009 -0.000004 4.061081 -0.944135 10.163801 0.628251 0.000012 -0.000030 3.654953 0.055869 10.163805 0.628266 -0.000006 0.000043 2.741262 0.000002 -0.000001 -0.000001 0.173492 4.467219 7.977013 15.785954 12.596366 7.060046 -0.000002 -0.000025 3.350418 -1.839476 9.668976 1.897824 -0.000003 -0.000025 2.842737 0.160508 9.668679 1.897829 0.000002 -0.000005 2.639699 -0.000000 0.000000 0.000001 0.000013 -0.000027 0.000000 -0.000004 0.000001 -0.000002 -0.000011 -0.000068 0.000005 -0.000006 -0.000001 0.000000 -11.289999 -0.000017 0.000008 -11.409534 -9.896872 22.989529 -0.000012 -0.000018 -38.200329 -0.230017 -0.010223 7.139391 -0.000069 -0.000016 -39.900860 -13.235208 6.999164 10.733323 -0.000009 -15.261683 0.000030 0.955526 -0.546703 -15.466340 0.000008 -7.370721 0.000001 -0.000001 0.000000 0.000000 -0.000001 0.000008 0.000001 -0.000001 0.000001 0.000002 -0.000032 -0.000003 -0.000003 0.000000 0.000001 0.000000 11.315670 -0.000042 -0.000008 16.779372 -23.424817 -9.978921 -0.000029 0.000037 -38.200283 0.876987 -0.523331 30.829599 0.000002 0.000040 -39.900848 22.902169 10.406452 23.112564 -0.000021 -15.261650 0.000005 -0.340583 -2.859711 -18.228452 0.000016 -7.539961 0.000001 -0.000003 -0.000001 0.000001 -0.000015 0.000050 -0.000001 0.000002 0.000002 0.000000 -0.000013 0.000000 -0.000000 -0.000000 0.000000 0.000000 
0.064362 1.984802 85.752869 1.052321 7.576396 -16.736028 -0.000015 2.080079 8.814243 -1.436701 -5.148621 8.318429 -0.000002 0.000021 8.844131 -0.302901 -0.518872 1.700600 -0.000007 -0.000002 11.682285 -2.679893 -2.328206 13.547391 0.000008 -0.000093 11.746710 -0.211495 -1.548045 5.800598 -0.000015 0.000003 17.658268 -1.070563 -3.904582 5.453733 -0.000006 -0.000002 5.101531 0.701474 0.741745 -3.447788 0.000011 0.000020 5.101517 -1.303362 1.937573 -17.262852 0.000001 -0.000001 11.655102 0.000000 0.000000 0.000000 -2.625414 -0.000027 11.175214 13.620336 -93.465367 1.068488 -0.000023 -0.000017 10.434731 -56.498007 -30.046883 54.376000 0.000010 -0.000031 29.628418 11.826231 0.228485 25.520430 -0.000080 0.000010 22.857548 16.219654 -8.266890 -7.263491 -2.867294 -2.944336 3.959572 31.586719 -17.619199 50.974532 0.000011 -0.000008 3.350422 -13.456737 8.731352 -24.185145 -0.000008 -0.000011 3.756546 -8.945685 6.680254 -16.547393 0.000006 -0.000005 3.147325 0.000000 0.000000 0.000000 -0.086739 -2.345292 10.030895 -11.794361 -15.771771 5.267874 -0.000002 0.000020 4.061085 0.341382 -11.527702 1.641485 -0.000015 -0.000027 3.248862 -0.158998 -11.527754 1.642285 0.000012 -0.000018 2.639692 0.000003 0.000001 -0.000002 0.104088 -0.006805 9.502954 -6.348131 -14.962229 2.716129 0.000033 -0.000041 4.568741 0.447416 -10.721756 0.561520 -0.000019 -0.000004 3.654977 -0.049946 -10.721758 0.561100 0.000007 -0.000031 2.741244 0.000003 -0.000001 -0.000001 0.086746 2.267468 8.921734 1.786487 -16.166163 1.879729 -0.000003 0.000025 4.061078 -0.938023 -11.332976 -0.692873 -0.000006 0.000018 3.654993 0.067819 -11.333035 -0.694782 0.000003 -0.000006 2.741247 0.000001 0.000000 -0.000000 -0.173496 4.467252 7.976989 10.619250 -16.262802 -1.215060 0.000006 -0.000021 3.350422 -1.803213 -11.240867 -2.209931 -0.000034 0.000001 2.842777 0.200396 -11.241047 -2.210644 -0.000001 -0.000028 2.639719 -0.000004 -0.000003 0.000003 0.000006 0.000013 0.000010 -0.000002 0.000000 -0.000001 -0.000006 0.000001 0.000003 -0.000000 0.000001 0.000000 2.625405 0.000024 11.175229 -10.589176 91.981891 -0.302003 0.000031 -0.000021 10.813641 56.506790 48.760960 55.709608 -0.000034 0.000031 28.724794 -12.534866 0.450963 37.037831 0.644352 0.328894 25.716200 -11.954309 -1.501905 -6.409960 2.867348 -2.944290 3.959602 -31.604559 17.443449 51.240441 -0.000038 0.000023 3.350418 13.067142 -8.582384 -23.536827 0.000008 0.000008 3.756565 8.692326 -6.542682 -16.108608 0.000001 0.000006 3.100006 0.000000 -0.000001 -0.000000 0.086761 -2.345278 10.030905 -5.921846 16.574907 1.625340 0.000003 -0.000018 4.061058 0.338786 11.369469 -1.619406 0.000000 0.000058 3.248849 -0.161221 11.369591 -1.619404 -0.000007 0.000019 2.639706 -0.000003 -0.000000 0.000000 -0.104098 -0.006772 9.502949 -0.923131 15.120956 2.577559 -0.000036 0.000005 4.568743 0.447819 10.604569 -0.562227 -0.000008 -0.000007 3.655002 -0.052133 10.605024 -0.562224 -0.000005 0.000017 2.741269 -0.000002 -0.000000 -0.000001 -0.086750 2.267429 8.921734 7.431843 15.034590 5.239993 0.000010 -0.000014 4.061112 -0.935276 10.928448 0.676663 0.000019 0.000020 3.654984 0.064730 10.928435 0.676655 -0.000001 0.000009 2.741282 -0.000001 0.000003 0.000001 0.173496 4.467268 7.976990 16.005925 13.462222 7.475143 -0.000010 -0.000003 3.350410 -1.816718 10.321993 2.028810 -0.000001 0.000012 2.842747 0.183250 10.321985 2.028805 -0.000007 0.000012 2.639712 -0.000000 -0.000000 0.000001 -0.000006 0.000013 0.000001 -0.000002 0.000000 0.000000 -0.000021 -0.000019 0.000024 0.000002 0.000001 -0.000001 -11.289946 0.000017 -0.000031 -11.414091 -9.878871 22.990647 -0.000029 0.000052 -38.200317 -0.231572 -0.010608 7.173582 -0.000034 0.000030 -39.900848 -13.235656 6.992031 10.730107 -0.000020 -15.261680 0.000010 0.955029 -0.544270 -15.470377 0.000009 -7.370646 0.000002 -0.000003 0.000000 -0.000000 -0.000013 0.000008 0.000001 -0.000001 -0.000001 -0.000004 0.000003 0.000001 0.000001 -0.000000 -0.000000 -0.000000 11.315659 -0.000031 0.000008 16.765008 -23.415272 -9.963919 -0.000031 -0.000004 -38.200317 0.874025 -0.522571 30.842925 0.000029 0.000015 -39.900833 22.897106 10.387622 23.104372 -0.000038 -15.261675 0.000010 -0.338480 -2.857688 -18.230668 -0.000003 -7.539901 0.000002 -0.000002 -0.000000 0.000000 0.000007 -0.000010 -0.000000 0.000001 0.000002 0.000002 -0.000019 0.000004 0.000009 -0.000001 0.000000 0.000000 
